  <svg    width="1000"    height="1000"    viewBox="0 0 1000 1000"    xmlns="http://www.w3.org/2000/svg"  >    <defs>                                                <clipPath id="shape">        <path fill="currentColor" d="M921.5,626.5Q849,753,747,849Q645,945,515.5,898Q386,851,253,813.5Q120,776,67.5,638Q15,500,113.5,395Q212,290,298.5,218Q385,146,509,118.5Q633,91,709,192Q785,293,889.5,396.5Q994,500,921.5,626.5Z"></path>      </clipPath>    </defs>          <g  clip-path="url(#shape)">      <path fill="#2c2d26" d="M921.5,626.5Q849,753,747,849Q645,945,515.5,898Q386,851,253,813.5Q120,776,67.5,638Q15,500,113.5,395Q212,290,298.5,218Q385,146,509,118.5Q633,91,709,192Q785,293,889.5,396.5Q994,500,921.5,626.5Z" />    </g>        </svg>